<svg xmlns="http://www.w3.org/2000/svg" width="1024" height="768" viewBox="0 0 1024 768">
  <defs>
    <linearGradient id="sky" x1="0" y1="0" x2="0" y2="1">
      <stop offset="0%" stop-color="#f8fafc"/>
      <stop offset="100%" stop-color="#eef2ff"/>
    </linearGradient>
    <linearGradient id="green" x1="0" y1="0" x2="1" y2="1">
      <stop offset="0%" stop-color="#22c55e"/>
      <stop offset="100%" stop-color="#d9f99d"/>
    </linearGradient>
    <linearGradient id="spei" x1="0" y1="0" x2="0" y2="1">
      <stop offset="0%" stop-color="#e11d48"/>
      <stop offset="50%" stop-color="#f59e0b"/>
      <stop offset="100%" stop-color="#22c55e"/>
    </linearGradient>
  </defs>
  <rect width="1024" height="768" fill="url(#sky)"/>
  <rect x="28" y="28" width="968" height="480" fill="#ffffff" stroke="#1f2937" stroke-width="2"/>
  <rect x="28" y="28" width="320" height="480" fill="#e5e7eb"/>
  <rect x="348" y="28" width="320" height="480" fill="url(#green)"/>
  <rect x="668" y="28" width="328" height="480" fill="#f3f4f6"/>

  <!-- left panel map blocks -->
  <g opacity="0.9">
    <rect x="44" y="48" width="18" height="18" fill="#ef4444"/>
    <rect x="72" y="74" width="10" height="10" fill="#111827"/>
    <rect x="96" y="116" width="16" height="16" fill="#b91c1c"/>
    <rect x="118" y="166" width="12" height="12" fill="#7f1d1d"/>
    <rect x="92" y="216" width="18" height="18" fill="#ef4444"/>
    <rect x="140" y="252" width="10" height="10" fill="#111827"/>
    <rect x="166" y="310" width="16" height="16" fill="#b91c1c"/>
    <rect x="126" y="350" width="12" height="12" fill="#7f1d1d"/>
    <rect x="80" y="396" width="18" height="18" fill="#ef4444"/>
    <rect x="178" y="428" width="10" height="10" fill="#111827"/>
  </g>

  <!-- center panel pixels -->
  <g opacity="0.95">
    <rect x="366" y="44" width="16" height="16" fill="#22c55e"/>
    <rect x="396" y="70" width="24" height="24" fill="#84cc16"/>
    <rect x="446" y="88" width="14" height="14" fill="#eab308"/>
    <rect x="486" y="124" width="22" height="22" fill="#bef264"/>
    <rect x="548" y="66" width="18" height="18" fill="#22c55e"/>
    <rect x="588" y="116" width="26" height="26" fill="#a3e635"/>
    <rect x="372" y="170" width="12" height="12" fill="#eab308"/>
    <rect x="426" y="206" width="20" height="20" fill="#bef264"/>
    <rect x="476" y="244" width="18" height="18" fill="#22c55e"/>
    <rect x="530" y="286" width="28" height="28" fill="#84cc16"/>
    <rect x="594" y="338" width="16" height="16" fill="#eab308"/>
    <rect x="510" y="410" width="22" height="22" fill="#bef264"/>
  </g>

  <!-- right panel county map blocks -->
  <g opacity="0.9">
    <rect x="706" y="84" width="20" height="20" fill="#fde047"/>
    <rect x="760" y="128" width="16" height="16" fill="#facc15"/>
    <rect x="826" y="182" width="22" height="22" fill="#f59e0b"/>
    <rect x="892" y="232" width="18" height="18" fill="#fbbf24"/>
    <rect x="706" y="296" width="24" height="24" fill="#f59e0b"/>
    <rect x="802" y="334" width="18" height="18" fill="#facc15"/>
    <rect x="874" y="388" width="22" height="22" fill="#ea580c"/>
  </g>

  <rect x="28" y="520" width="968" height="220" fill="#ffffff" stroke="#1f2937" stroke-width="2"/>
  <text x="52" y="572" font-family="Arial, Helvetica, sans-serif" font-size="28" font-weight="700" fill="#111827">Alfalfa Distribution and SPEI (Pixel Level)</text>
  <rect x="52" y="606" width="180" height="24" fill="#111827"/>
  <text x="244" y="624" font-family="Arial, Helvetica, sans-serif" font-size="18" fill="#111827">Crop data layer</text>
  <text x="52" y="664" font-family="Arial, Helvetica, sans-serif" font-size="18" fill="#111827">Value</text>
  <rect x="164" y="642" width="24" height="72" fill="url(#spei)" stroke="#d1d5db"/>
  <text x="208" y="652" font-family="Arial, Helvetica, sans-serif" font-size="16" fill="#111827">3.09</text>
  <text x="208" y="714" font-family="Arial, Helvetica, sans-serif" font-size="16" fill="#111827">-2.40684</text>
  <rect x="52" y="682" width="34" height="20" fill="#ffffff" stroke="#1f2937"/>
  <text x="96" y="698" font-family="Arial, Helvetica, sans-serif" font-size="16" fill="#111827">State Boundary</text>
  <text x="52" y="736" font-family="Arial, Helvetica, sans-serif" font-size="16" fill="#111827">0   5   10   20 Miles</text>
  <text x="300" y="718" font-family="Arial, Helvetica, sans-serif" font-size="44" fill="#111827">N</text>
  <path d="M314 740 L324 700 L334 740 Z" fill="#111827"/>
  <path d="M314 740 L324 750 L334 740 Z" fill="#111827"/>
  <line x1="324" y1="700" x2="324" y2="750" stroke="#111827" stroke-width="2"/>
</svg>
