<svg xmlns="http://www.w3.org/2000/svg" width="1024" height="768" viewBox="0 0 1024 768">
  <defs>
    <linearGradient id="barn" x1="0" y1="0" x2="1" y2="1">
      <stop offset="0%" stop-color="#f8fafc"/>
      <stop offset="100%" stop-color="#d6d3d1"/>
    </linearGradient>
    <linearGradient id="hay" x1="0" y1="0" x2="0" y2="1">
      <stop offset="0%" stop-color="#fde68a"/>
      <stop offset="100%" stop-color="#fbbf24"/>
    </linearGradient>
  </defs>
  <rect width="1024" height="768" fill="#fff7ed"/>
  <rect x="0" y="0" width="1024" height="110" fill="#fff" opacity="0.7"/>
  <ellipse cx="150" cy="88" rx="140" ry="70" fill="#fff" opacity="0.7"/>
  <ellipse cx="890" cy="70" rx="120" ry="50" fill="#fff" opacity="0.55"/>

  <rect x="58" y="192" width="900" height="470" rx="22" fill="#fef3c7" stroke="#d6d3d1" stroke-width="3"/>
  <path d="M66 400 C190 340, 280 320, 392 300 C545 270, 675 262, 954 310 L954 660 L66 660 Z" fill="#78350f" opacity="0.16"/>

  <!-- calf stalls / barns -->
  <g transform="translate(112,220)">
    <rect x="0" y="0" width="160" height="230" rx="16" fill="url(#barn)" stroke="#6b7280" stroke-width="4"/>
    <path d="M18 40 h124 v148 h-124 z" fill="#111827"/>
    <path d="M46 34 c0 -10 8 -18 18 -18 h32 c10 0 18 8 18 18" fill="none" stroke="#111827" stroke-width="18"/>
    <ellipse cx="82" cy="158" rx="48" ry="28" fill="#fff"/>
    <circle cx="64" cy="152" r="8" fill="#111827"/>
    <circle cx="100" cy="152" r="8" fill="#111827"/>
  </g>
  <g transform="translate(314,210)">
    <rect x="0" y="0" width="176" height="238" rx="16" fill="url(#barn)" stroke="#6b7280" stroke-width="4"/>
    <path d="M22 44 h132 v156 h-132 z" fill="#111827"/>
    <path d="M54 34 c0 -10 8 -18 18 -18 h32 c10 0 18 8 18 18" fill="none" stroke="#111827" stroke-width="18"/>
    <ellipse cx="88" cy="166" rx="52" ry="30" fill="#fff"/>
    <circle cx="70" cy="159" r="8" fill="#111827"/>
    <circle cx="106" cy="159" r="8" fill="#111827"/>
  </g>
  <g transform="translate(550,204)">
    <rect x="0" y="0" width="168" height="250" rx="18" fill="url(#barn)" stroke="#6b7280" stroke-width="4"/>
    <path d="M20 48 h128 v164 h-128 z" fill="#111827"/>
    <path d="M50 34 c0 -10 8 -18 18 -18 h32 c10 0 18 8 18 18" fill="none" stroke="#111827" stroke-width="18"/>
    <ellipse cx="84" cy="170" rx="50" ry="28" fill="#fff"/>
    <circle cx="66" cy="163" r="8" fill="#111827"/>
    <circle cx="102" cy="163" r="8" fill="#111827"/>
  </g>
  <g transform="translate(790,226)">
    <rect x="0" y="0" width="170" height="246" rx="18" fill="#111827" stroke="#111827" stroke-width="4"/>
    <ellipse cx="85" cy="168" rx="52" ry="30" fill="#fff"/>
    <circle cx="67" cy="162" r="8" fill="#111827"/>
    <circle cx="103" cy="162" r="8" fill="#111827"/>
  </g>

  <!-- hay bedding -->
  <rect x="74" y="548" width="876" height="92" fill="url(#hay)" opacity="0.75"/>
  <g fill="#d97706" opacity="0.18">
    <circle cx="102" cy="578" r="11"/>
    <circle cx="148" cy="612" r="12"/>
    <circle cx="220" cy="570" r="10"/>
    <circle cx="324" cy="606" r="14"/>
    <circle cx="428" cy="578" r="12"/>
    <circle cx="576" cy="604" r="14"/>
    <circle cx="698" cy="572" r="11"/>
    <circle cx="836" cy="606" r="13"/>
  </g>

  <text x="54" y="726" font-family="Arial, Helvetica, sans-serif" font-size="32" font-weight="700" fill="#1f2937">Remote Sensing Field Observation (3939)</text>
</svg>
