<svg xmlns="http://www.w3.org/2000/svg" width="1024" height="768" viewBox="0 0 1024 768">
  <defs>
    <linearGradient id="field" x1="0" y1="0" x2="1" y2="1">
      <stop offset="0%" stop-color="#fef3c7"/>
      <stop offset="100%" stop-color="#d9f99d"/>
    </linearGradient>
    <linearGradient id="overlay" x1="0" y1="0" x2="1" y2="1">
      <stop offset="0%" stop-color="#ef4444" stop-opacity="0.7"/>
      <stop offset="100%" stop-color="#f97316" stop-opacity="0.7"/>
    </linearGradient>
  </defs>
  <rect width="1024" height="768" fill="#111827"/>
  <rect x="24" y="24" width="976" height="720" rx="18" fill="#0f172a" stroke="#334155" stroke-width="2"/>
  <rect x="70" y="66" width="884" height="600" rx="14" fill="url(#field)"/>

  <!-- field mosaic -->
  <g opacity="0.65">
    <rect x="96" y="92" width="86" height="56" fill="#eab308"/>
    <rect x="188" y="92" width="110" height="56" fill="#84cc16"/>
    <rect x="304" y="92" width="74" height="56" fill="#65a30d"/>
    <rect x="384" y="92" width="118" height="56" fill="#22c55e"/>
    <rect x="508" y="92" width="96" height="56" fill="#eab308"/>
    <rect x="610" y="92" width="104" height="56" fill="#f59e0b"/>
    <rect x="720" y="92" width="150" height="56" fill="#84cc16"/>
    <rect x="96" y="152" width="132" height="72" fill="#22c55e"/>
    <rect x="236" y="152" width="108" height="72" fill="#f97316"/>
    <rect x="350" y="152" width="122" height="72" fill="#84cc16"/>
    <rect x="478" y="152" width="104" height="72" fill="#eab308"/>
    <rect x="588" y="152" width="92" height="72" fill="#f59e0b"/>
    <rect x="686" y="152" width="184" height="72" fill="#22c55e"/>
  </g>

  <!-- drone pins -->
  <g fill="none" stroke="#dc2626" stroke-width="6" opacity="0.9">
    <circle cx="166" cy="236" r="28"/>
    <circle cx="280" cy="274" r="28"/>
    <circle cx="416" cy="224" r="28"/>
    <circle cx="548" cy="286" r="28"/>
    <circle cx="718" cy="238" r="28"/>
    <circle cx="838" cy="330" r="28"/>
    <circle cx="220" cy="418" r="28"/>
    <circle cx="350" cy="454" r="28"/>
    <circle cx="518" cy="412" r="28"/>
    <circle cx="686" cy="468" r="28"/>
    <circle cx="816" cy="512" r="28"/>
  </g>
  <g fill="#ef4444" opacity="0.95">
    <path d="M166 264 l12 30 l-12 24 l-12 -24 z"/>
    <path d="M280 302 l12 30 l-12 24 l-12 -24 z"/>
    <path d="M416 252 l12 30 l-12 24 l-12 -24 z"/>
    <path d="M548 314 l12 30 l-12 24 l-12 -24 z"/>
    <path d="M718 266 l12 30 l-12 24 l-12 -24 z"/>
    <path d="M838 358 l12 30 l-12 24 l-12 -24 z"/>
  </g>

  <!-- overlay circle -->
  <circle cx="520" cy="322" r="142" fill="url(#overlay)" opacity="0.55"/>
  <circle cx="520" cy="322" r="142" fill="none" stroke="#fecaca" stroke-width="4" opacity="0.5"/>

  <!-- map border lines -->
  <g stroke="#111827" stroke-width="3" opacity="0.45">
    <line x1="70" y1="260" x2="954" y2="260"/>
    <line x1="70" y1="392" x2="954" y2="392"/>
    <line x1="70" y1="524" x2="954" y2="524"/>
    <line x1="240" y1="66" x2="240" y2="666"/>
    <line x1="430" y1="66" x2="430" y2="666"/>
    <line x1="620" y1="66" x2="620" y2="666"/>
    <line x1="800" y1="66" x2="800" y2="666"/>
  </g>

  <text x="70" y="722" font-family="Arial, Helvetica, sans-serif" font-size="34" font-weight="700" fill="#e5e7eb">CDL / Machine Learning Overlay</text>
  <text x="70" y="744" font-family="Arial, Helvetica, sans-serif" font-size="18" fill="#cbd5e1">Field map, annotated points, and ML relevance zones</text>
</svg>
